<?xml version="1.0" standalone="no"?>
<!DOCTYPE svg PUBLIC "-//W3C//DTD SVG 20010904//EN"
 "http://www.w3.org/TR/2001/REC-SVG-20010904/DTD/svg10.dtd">
<svg version="1.0" xmlns="http://www.w3.org/2000/svg"
 width="400.000000pt" height="400.000000pt" viewBox="0 0 400.000000 400.000000"
 preserveAspectRatio="xMidYMid meet">
<metadata>
Created by potrace 1.16, written by Peter Selinger 2001-2019
</metadata>
<g transform="translate(0.000000,400.000000) scale(0.100000,-0.100000)"
fill="#000000" stroke="none">
<path d="M0 2000 l0 -2000 2000 0 2000 0 0 2000 0 2000 -2000 0 -2000 0 0
-2000z m3990 0 l0 -1990 -1990 0 -1990 0 0 1990 0 1990 1990 0 1990 0 0 -1990z"/>
<path d="M1120 2986 c-58 -29 -105 -91 -119 -156 -15 -72 -15 -1589 0 -1661
14 -66 92 -151 154 -168 27 -7 296 -11 850 -11 l810 0 51 24 c62 29 110 84
129 150 22 74 22 1608 0 1682 -19 63 -63 116 -120 143 -45 21 -49 21 -877 21
l-833 -1 -45 -23z m1578 -299 c-3 -151 -4 -155 -33 -203 -19 -30 -49 -60 -79
-79 l-49 -30 -551 -5 c-620 -6 -592 -2 -661 -83 l-35 -41 0 195 c0 219 8 261
63 323 18 20 50 45 72 56 38 18 66 19 658 20 l619 0 -4 -153z m-468 -589 c-1
-199 -23 -251 -130 -305 l-55 -28 -295 -1 c-338 -1 -352 -4 -420 -82 l-40 -45
0 199 c1 211 6 243 51 309 24 34 77 70 127 85 15 5 192 9 395 9 l367 1 0 -142z
m-470 -615 c0 -78 -5 -154 -11 -170 -19 -52 -62 -104 -108 -131 -39 -23 -58
-27 -117 -27 -59 1 -77 5 -115 29 -150 95 -154 306 -9 402 46 30 107 39 272
39 l88 0 0 -142z"/>
</g>
</svg>
