<?xml version="1.0" standalone="no"?>
<!DOCTYPE svg PUBLIC "-//W3C//DTD SVG 20010904//EN"
 "http://www.w3.org/TR/2001/REC-SVG-20010904/DTD/svg10.dtd">
<svg version="1.0" xmlns="http://www.w3.org/2000/svg"
 width="204.000000pt" height="192.000000pt" viewBox="0 0 204.000000 192.000000"
 preserveAspectRatio="xMidYMid meet">
<metadata>
Created by potrace 1.16, written by Peter Selinger 2001-2019
</metadata>
<g transform="translate(0.000000,192.000000) scale(0.100000,-0.100000)"
fill="#000000" stroke="none">
<path d="M0 960 l0 -960 1020 0 1020 0 0 960 0 960 -1020 0 -1020 0 0 -960z
m655 424 c52 -56 16 -144 -57 -144 -37 1 -59 14 -76 47 -19 35 -14 63 17 94
38 38 83 39 116 3z m258 14 c55 -17 122 -82 136 -133 14 -50 14 -139 1 -187
-26 -91 -117 -148 -237 -148 l-73 0 0 70 0 70 53 0 c79 0 92 14 92 99 0 40 -5
75 -12 82 -6 6 -38 14 -70 18 l-58 6 -3 54 c-2 29 -1 60 2 67 7 18 113 19 169
2z m483 -352 c82 -44 134 -141 134 -248 l0 -48 -161 0 -160 0 3 48 3 47 78 3
77 3 -6 27 c-3 15 -19 39 -35 55 -41 38 -97 38 -141 -2 -30 -27 -33 -34 -36
-106 -8 -143 23 -188 126 -188 58 0 91 11 127 43 19 18 21 17 64 -32 l44 -50
-29 -24 c-63 -51 -114 -69 -204 -69 -107 0 -164 21 -219 80 -90 97 -95 297
-11 402 26 32 82 69 128 84 53 17 164 4 218 -25z m-716 -241 l0 -265 -85 0
-85 0 0 258 c0 142 3 262 7 265 3 4 42 7 85 7 l78 0 0 -265z"/>
</g>
</svg>
