<?xml version="1.0" standalone="no"?>
<!DOCTYPE svg PUBLIC "-//W3C//DTD SVG 20010904//EN"
 "http://www.w3.org/TR/2001/REC-SVG-20010904/DTD/svg10.dtd">
<svg version="1.0" xmlns="http://www.w3.org/2000/svg"
 width="259.000000pt" height="194.000000pt" viewBox="0 0 259.000000 194.000000"
 preserveAspectRatio="xMidYMid meet">
<metadata>
Created by potrace 1.16, written by Peter Selinger 2001-2019
</metadata>
<g transform="translate(0.000000,194.000000) scale(0.100000,-0.100000)"
fill="#000000" stroke="none">
<path d="M365 1170 c-10 -11 -14 -20 -9 -20 5 0 1 -5 -8 -11 -11 -6 -15 -16
-11 -26 4 -10 2 -14 -4 -10 -12 8 -26 -20 -17 -34 3 -5 0 -9 -5 -9 -6 0 -11
-16 -11 -36 0 -27 -7 -41 -25 -56 -25 -20 -36 -78 -14 -78 6 0 8 -8 5 -17 -3
-10 -1 -24 3 -32 8 -13 12 -13 26 -1 16 13 16 15 -1 27 -10 7 -13 13 -7 13 7
0 14 -4 17 -9 3 -5 41 -8 83 -7 66 1 81 -2 94 -18 20 -24 42 -12 36 20 -2 13
0 24 4 24 12 0 11 37 -1 61 -6 10 -16 19 -23 19 -8 0 -8 -3 2 -9 9 -6 10 -11
2 -15 -6 -4 -11 -6 -12 -4 0 2 -2 23 -5 48 -7 65 -30 128 -59 166 -30 40 -36
41 -60 14z m57 -77 c-6 -2 -9 -9 -6 -14 3 -6 12 -5 22 3 14 10 15 10 5 -2 -7
-8 -13 -27 -13 -42 0 -28 -2 -29 -44 -27 -32 2 -43 7 -42 18 1 9 -5 15 -14 13
-8 -2 -4 7 11 21 13 14 35 27 49 30 35 6 47 6 32 0z m-32 -97 c0 -2 -7 -7 -16
-10 -8 -3 -12 -2 -9 4 6 10 25 14 25 6z"/>
<path d="M372 1048 c6 -18 25 -21 25 -3 0 8 -7 15 -14 15 -8 0 -13 -5 -11 -12z"/>
<path d="M1901 990 c0 -74 4 -130 10 -130 5 0 9 19 9 42 l0 42 43 -42 c41 -40
77 -55 77 -31 0 6 -9 9 -20 6 -11 -3 -18 -2 -15 2 2 5 -7 19 -20 31 -32 30
-31 40 5 75 16 16 28 31 25 33 -3 3 -18 -9 -34 -26 -16 -16 -33 -27 -37 -24
-4 4 -4 1 0 -5 5 -9 1 -13 -11 -13 -16 0 -18 8 -15 85 2 53 0 85 -7 85 -6 0
-10 -49 -10 -130z"/>
<path d="M610 975 l0 -115 80 0 c47 0 80 4 80 10 0 6 -28 10 -65 10 l-65 0 0
105 c0 87 -3 105 -15 105 -12 0 -15 -19 -15 -115z"/>
<path d="M1252 975 c0 -64 4 -115 9 -115 5 0 9 18 9 40 l0 40 61 0 c37 0 58
-4 54 -10 -3 -5 1 -10 10 -10 9 0 13 5 10 11 -4 6 2 19 14 30 11 11 24 31 27
46 14 54 -30 83 -128 83 l-66 0 0 -115z m150 83 c19 -16 33 -79 16 -75 -7 1
-12 -5 -13 -13 0 -8 -6 -15 -12 -14 -7 1 -38 2 -68 3 l-55 1 0 55 0 55 58 0
c32 0 65 -6 74 -12z"/>
<path d="M2259 1023 c-11 -13 -11 -17 -1 -20 8 -3 12 -25 12 -62 0 -31 5 -62
12 -69 15 -15 48 -16 48 -1 0 6 -9 8 -21 4 -12 -4 -19 -3 -16 2 3 5 2 35 -2
66 l-8 57 29 0 c15 0 28 5 28 10 0 6 -11 10 -25 10 -14 0 -25 5 -25 10 0 15
-16 12 -31 -7z"/>
<path d="M843 1004 c-3 -8 -9 -12 -13 -9 -11 7 -22 -24 -13 -37 4 -7 1 -8 -7
-3 -18 11 -5 -54 15 -74 12 -12 13 -7 9 35 -5 40 -2 52 13 66 16 14 96 31 88
18 -2 -3 3 -13 10 -23 10 -14 14 -15 18 -3 3 8 -2 21 -11 29 -22 19 -102 19
-109 1z"/>
<path d="M1061 1007 c-6 -8 -8 -17 -4 -20 3 -4 1 -7 -6 -7 -8 0 -10 -7 -6 -19
3 -11 0 -29 -7 -40 -21 -34 0 -55 60 -61 60 -6 66 -11 58 -43 -5 -21 -9 -23
-48 -18 -35 5 -44 10 -46 29 -4 25 -20 29 -29 7 -11 -30 25 -55 76 -52 51 3
75 13 66 28 -4 5 -1 9 4 9 6 0 11 9 11 20 0 19 -10 24 -37 21 -7 -1 -13 3 -13
9 0 5 -13 10 -28 10 -32 0 -71 24 -59 36 4 4 27 7 52 5 37 -2 46 1 60 22 8 13
13 32 9 41 -4 11 -1 16 10 16 9 0 16 4 16 8 0 15 -126 13 -139 -1z m91 -21
c-2 -9 3 -16 9 -16 7 0 4 -7 -7 -16 -10 -8 -13 -12 -5 -8 9 4 12 3 8 -3 -4 -6
-26 -10 -49 -9 -39 2 -43 4 -40 27 4 31 27 48 60 44 19 -2 26 -8 24 -19z"/>
<path d="M1521 996 c-10 -12 -22 -30 -25 -42 -8 -26 3 -56 17 -47 6 4 8 0 4
-10 -8 -22 8 -30 65 -33 41 -3 50 0 68 23 27 35 26 84 -2 110 -31 28 -100 28
-127 -1z m107 2 c-2 -7 2 -12 9 -11 8 2 10 -4 6 -14 -4 -9 -2 -14 3 -11 5 3 9
-7 10 -23 1 -17 -3 -26 -9 -22 -6 4 -8 0 -4 -10 3 -9 3 -16 -1 -15 -4 1 -20
-4 -35 -10 -19 -8 -34 -9 -46 -2 -10 5 -22 6 -26 2 -3 -4 -6 -2 -4 3 1 6 0 17
-4 25 -14 38 -14 59 0 64 8 3 12 9 9 14 -2 4 12 9 32 10 20 2 38 5 41 7 9 10
21 5 19 -7z"/>
<path d="M1741 1004 c-15 -11 -20 -22 -15 -36 4 -14 2 -18 -5 -14 -20 13 -12
-40 10 -68 18 -23 27 -27 67 -24 25 2 47 9 50 16 3 9 -2 10 -22 2 -64 -24
-106 35 -75 103 9 19 17 23 41 21 16 -2 34 -6 39 -9 5 -4 9 0 9 8 0 20 -71 20
-99 1z"/>
<path d="M2096 1001 c-9 -10 -13 -21 -9 -24 3 -4 1 -7 -5 -7 -7 0 -12 -16 -12
-37 0 -29 3 -35 11 -23 8 12 9 12 7 -5 -3 -27 9 -45 33 -45 25 0 24 12 -1 28
-38 24 -24 42 33 43 28 1 55 1 60 0 4 0 7 10 7 24 0 14 -5 25 -11 25 -5 0 -8
4 -4 9 17 28 -85 39 -109 12z m99 -27 c0 -28 -2 -29 -48 -32 -47 -3 -47 -3
-45 27 1 16 5 28 8 26 3 -2 11 0 18 4 6 3 24 6 39 5 23 -1 27 -5 28 -30z"/>
<path d="M957 930 c-17 -44 -56 -67 -86 -51 -13 7 -18 6 -18 -5 0 -10 12 -14
39 -14 49 0 88 35 88 80 0 16 -2 30 -3 30 -2 0 -11 -18 -20 -40z"/>
<path d="M1407 895 c-4 -8 -2 -15 4 -15 6 0 7 -4 4 -10 -3 -5 1 -10 10 -10 13
0 14 4 4 23 -16 30 -16 30 -22 12z"/>
<path d="M2155 870 c-3 -6 5 -10 19 -10 14 0 28 5 31 10 3 6 -5 10 -19 10 -14
0 -28 -4 -31 -10z"/>
<path d="M343 803 c0 -17 3 -21 10 -14 15 15 27 14 22 -1 -3 -7 0 -20 5 -28 9
-13 11 -13 19 0 5 8 8 17 5 21 -2 4 0 10 6 14 5 3 10 1 10 -4 0 -6 5 -11 10
-11 6 0 10 11 10 25 0 14 -5 25 -11 25 -5 0 -7 -4 -4 -10 5 -9 -35 -6 -71 5
-6 2 -11 -8 -11 -22z"/>
</g>
</svg>
